<?xml version="1.0" standalone="no"?>
<!DOCTYPE svg PUBLIC "-//W3C//DTD SVG 20010904//EN"
 "http://www.w3.org/TR/2001/REC-SVG-20010904/DTD/svg10.dtd">
<svg version="1.0" xmlns="http://www.w3.org/2000/svg"
 width="1000.000000pt" height="1000.000000pt" viewBox="0 0 1000.000000 1000.000000"
 preserveAspectRatio="xMidYMid meet">
<metadata>
Created by potrace 1.14, written by Peter Selinger 2001-2017
</metadata>
<g transform="translate(0.000000,1000.000000) scale(0.100000,-0.100000)"
fill="#000000" stroke="none">
<path d="M6369 9996 c-2 -2 -51 -7 -109 -10 -58 -4 -118 -9 -135 -12 -16 -2
-52 -6 -80 -9 -49 -4 -93 -10 -165 -21 -19 -3 -46 -7 -60 -9 -14 -2 -25 -4
-25 -5 0 -1 -13 -3 -30 -5 -16 -2 -39 -6 -50 -9 -32 -7 -108 -24 -135 -30
-109 -23 -456 -115 -500 -133 -8 -4 -17 -7 -20 -8 -169 -51 -535 -191 -700
-267 -25 -11 -74 -34 -110 -50 -36 -16 -104 -49 -152 -73 -49 -25 -88 -42 -88
-38 0 3 -8 -1 -17 -9 -10 -9 -45 -29 -78 -46 -81 -40 -219 -114 -225 -121 -3
-3 -25 -16 -50 -29 -25 -13 -57 -31 -72 -40 -14 -9 -55 -33 -90 -54 -94 -54
-497 -324 -603 -403 -70 -53 -260 -199 -271 -210 -7 -5 -26 -21 -44 -35 -17
-14 -41 -33 -53 -43 -12 -11 -42 -35 -66 -55 -64 -54 -78 -67 -166 -145 -107
-96 -453 -441 -545 -546 -41 -46 -80 -89 -85 -95 -6 -6 -40 -47 -75 -91 -36
-44 -67 -82 -70 -85 -3 -3 -28 -34 -55 -70 -27 -36 -52 -67 -55 -70 -3 -3 -30
-40 -60 -84 -30 -43 -63 -87 -72 -97 -10 -11 -18 -21 -18 -23 0 -2 -28 -46
-63 -98 -117 -172 -239 -380 -321 -543 -22 -44 -42 -82 -45 -85 -3 -3 -7 -10
-8 -15 -1 -6 -19 -49 -41 -95 -22 -47 -61 -139 -87 -205 -26 -66 -53 -133 -60
-150 -33 -76 -135 -395 -149 -465 -3 -14 -16 -70 -30 -125 -21 -88 -43 -195
-61 -305 -3 -19 -8 -48 -11 -65 -3 -16 -7 -48 -9 -69 -3 -21 -7 -57 -11 -80
-3 -23 -8 -59 -9 -81 -2 -22 -7 -65 -11 -95 -17 -116 -9 -727 11 -830 2 -8 6
-44 10 -80 4 -36 9 -74 11 -85 3 -11 7 -38 10 -60 3 -22 7 -51 10 -65 4 -14 8
-38 10 -55 2 -16 9 -46 14 -65 8 -29 28 -107 65 -250 2 -8 4 -15 5 -15 1 0 3
-7 5 -15 11 -55 65 -226 89 -281 8 -20 12 -39 9 -43 -4 -3 -1 -6 5 -6 7 0 12
-7 12 -15 0 -39 206 -455 285 -574 30 -46 55 -85 55 -88 0 -4 31 -48 57 -82 7
-9 36 -50 65 -91 30 -41 63 -86 73 -98 11 -13 28 -33 38 -45 117 -138 378
-406 466 -477 24 -19 53 -43 65 -52 11 -10 28 -23 36 -30 8 -7 32 -26 55 -42
22 -16 42 -32 45 -36 3 -3 37 -28 75 -55 39 -27 72 -52 75 -55 3 -3 14 -10 25
-17 11 -7 74 -46 140 -87 66 -41 172 -100 235 -133 63 -32 116 -61 118 -65 2
-5 10 -8 18 -8 17 0 56 -21 66 -35 4 -5 8 -7 8 -3 0 4 26 -6 58 -21 31 -16 91
-43 132 -61 41 -18 89 -38 105 -45 46 -20 241 -91 320 -116 39 -12 77 -25 85
-27 22 -8 108 -34 123 -38 4 -1 8 -2 10 -4 1 -1 9 -3 17 -5 9 -1 51 -13 95
-25 44 -12 89 -23 100 -25 11 -2 40 -9 65 -14 25 -6 55 -13 68 -15 13 -3 31
-7 40 -10 9 -3 28 -7 42 -10 14 -2 60 -11 102 -20 42 -9 94 -18 115 -22 21 -3
49 -7 63 -10 60 -10 111 -18 190 -28 19 -3 55 -8 80 -12 25 -3 65 -8 90 -9 25
-2 45 -4 45 -5 0 -1 23 -3 50 -5 28 -2 97 -7 155 -12 172 -13 885 -7 885 8 0
1 23 3 50 5 61 4 129 11 175 18 19 3 58 8 85 11 28 3 59 8 70 10 11 3 37 7 57
10 57 7 211 35 228 40 8 2 29 7 45 10 17 2 41 7 55 10 14 3 41 8 60 12 19 4
38 8 43 9 4 1 15 2 25 3 14 1 15 3 2 11 -8 5 -17 6 -20 2 -3 -4 -25 -8 -50 -9
-25 -1 -74 -4 -110 -7 -198 -17 -273 -20 -570 -19 -300 0 -371 2 -595 19 -44
4 -101 7 -127 8 -27 0 -48 3 -48 6 0 3 -17 5 -38 6 -20 0 -64 4 -97 8 -33 5
-78 10 -100 11 -22 2 -56 6 -75 9 -19 3 -57 8 -85 11 -27 3 -57 8 -65 10 -8 2
-40 6 -70 9 -30 3 -104 15 -165 26 -60 11 -126 23 -145 26 -19 3 -44 8 -55 11
-22 8 -26 8 -75 17 -67 11 -96 17 -240 51 -80 19 -169 42 -199 51 -30 9 -62
17 -70 19 -22 5 -307 100 -356 118 -22 9 -76 29 -121 46 -232 87 -541 234
-717 342 -26 16 -50 29 -53 29 -2 0 -10 5 -17 10 -7 6 -48 34 -92 63 -89 58
-261 184 -287 210 -9 9 -21 17 -27 17 -5 0 -14 6 -18 13 -4 6 -35 34 -68 62
-69 57 -159 140 -221 205 -92 96 -150 159 -171 187 -12 15 -34 42 -49 58 -14
17 -38 46 -53 65 -14 19 -28 37 -31 40 -3 3 -16 21 -30 40 -13 19 -28 40 -33
45 -24 28 -157 242 -157 253 0 6 -4 12 -8 12 -7 0 -54 88 -149 285 -22 44 -41
85 -42 90 -2 6 -7 19 -11 30 -59 145 -80 203 -80 216 0 9 -3 19 -7 23 -4 3 -8
12 -10 19 -1 7 -19 68 -38 137 -20 69 -37 134 -39 145 -3 11 -10 43 -16 70
-23 99 -38 170 -46 225 -3 19 -7 46 -10 60 -2 14 -6 52 -10 85 -3 33 -7 66 -9
72 -24 75 -24 792 0 866 2 6 6 41 10 77 3 36 10 92 15 125 5 33 12 78 16 100
13 89 76 379 85 397 5 10 8 18 6 18 -3 0 11 51 30 113 18 61 35 117 36 124 2
7 6 16 10 19 4 4 7 14 7 23 0 13 50 156 77 221 3 8 7 17 8 20 1 3 7 18 13 33
7 16 12 30 12 32 0 17 179 390 247 514 82 150 213 364 225 369 4 2 8 8 8 14 0
13 274 395 300 418 3 3 24 27 45 55 22 27 45 55 50 61 6 6 28 32 50 59 22 26
51 60 65 75 14 15 56 62 93 104 117 130 407 415 533 523 12 10 47 40 78 67 32
27 69 58 84 70 15 11 36 30 48 41 11 11 33 29 48 40 15 11 40 30 54 43 33 28
25 22 157 120 61 44 119 88 130 96 53 41 81 60 220 153 184 124 311 203 325
203 5 0 10 4 10 8 0 5 15 16 33 25 17 9 50 27 72 40 185 107 209 120 315 173
41 20 78 41 81 47 3 5 8 8 10 7 2 -2 45 17 94 40 215 102 274 128 279 122 3
-3 6 0 6 6 0 7 4 12 9 12 5 0 22 5 38 12 15 6 30 12 33 13 3 1 22 9 44 18 21
9 40 17 41 17 1 0 20 8 41 17 22 9 44 18 49 19 6 2 57 21 115 44 58 22 112 42
120 43 8 1 20 5 25 8 10 6 79 30 100 35 6 2 42 12 80 24 85 26 165 50 185 54
8 2 44 12 79 21 35 9 76 18 90 21 14 2 64 13 111 23 47 11 99 22 115 25 17 3
57 10 90 16 71 12 138 22 180 25 17 2 30 4 30 5 0 2 20 4 145 14 41 3 111 9
155 12 103 9 333 9 455 0 162 -11 299 -24 308 -30 4 -2 30 -7 57 -10 28 -3 61
-8 75 -11 14 -2 39 -7 55 -11 63 -12 251 -56 265 -61 8 -3 24 -8 35 -10 27 -6
37 -9 55 -16 8 -3 53 -18 100 -32 47 -15 99 -33 115 -40 154 -63 205 -86 307
-136 186 -92 402 -234 537 -353 51 -45 221 -215 221 -221 0 -3 14 -19 30 -35
17 -16 30 -33 30 -38 0 -5 7 -15 16 -23 8 -7 32 -38 52 -68 20 -31 43 -62 50
-70 8 -8 18 -24 23 -35 5 -12 27 -50 49 -86 22 -36 52 -90 68 -120 15 -30 30
-56 35 -58 4 -2 7 -10 7 -17 0 -7 10 -33 21 -57 12 -23 26 -52 30 -63 13 -31
32 -79 34 -85 0 -3 13 -41 27 -85 31 -94 51 -164 64 -235 2 -14 9 -46 14 -73
25 -119 34 -438 17 -592 -13 -121 -73 -391 -104 -465 -3 -8 -7 -19 -9 -25 -27
-105 -172 -413 -258 -550 -126 -201 -210 -318 -363 -505 -178 -217 -410 -447
-618 -611 -44 -35 -82 -66 -85 -69 -3 -3 -12 -9 -21 -15 -9 -5 -61 -40 -115
-77 -90 -60 -270 -156 -305 -162 -8 -1 -23 -7 -34 -13 -11 -6 -69 -25 -128
-42 -117 -33 -164 -34 -220 -4 -18 10 -35 16 -38 16 -7 -2 -124 110 -149 143
-52 65 -106 180 -129 269 -11 43 -21 125 -16 125 2 0 26 -14 54 -31 55 -34
122 -44 175 -27 39 13 96 55 103 77 4 9 10 18 13 21 10 7 51 120 44 120 -4 0
-2 6 3 13 10 14 10 123 -1 217 -15 135 -63 295 -128 430 -22 47 -43 87 -47 90
-3 3 -18 23 -33 45 -25 37 -97 114 -130 140 -22 17 -81 37 -121 42 -96 12
-185 -49 -250 -172 -11 -22 -22 -44 -24 -50 -1 -5 -18 -55 -38 -110 -19 -55
-36 -111 -39 -125 -2 -14 -7 -32 -10 -40 -3 -8 -8 -28 -11 -45 -13 -62 -46
-252 -51 -290 -15 -103 -26 -194 -28 -220 -1 -11 -5 -25 -9 -32 -4 -6 -3 -14
3 -18 6 -4 7 -11 4 -17 -8 -13 -12 -54 -18 -183 -3 -49 -5 -90 -6 -90 0 0 -3
-58 -6 -130 -2 -71 -7 -186 -10 -255 -2 -69 -5 -150 -5 -180 0 -47 -1 -51 -10
-30 -5 13 -12 49 -15 80 -2 30 -7 75 -10 100 -4 25 -8 65 -10 90 -1 25 -5 56
-8 70 -7 40 -19 154 -30 295 -3 44 -8 89 -10 100 -4 20 -12 94 -21 205 -6 70
-24 252 -31 308 -3 24 -7 63 -9 87 -2 25 -6 49 -10 55 -3 5 -1 10 5 10 6 0 8
5 4 11 -7 12 -9 29 -19 164 -4 50 -8 108 -10 130 -15 185 -23 295 -30 410 -3
50 -8 110 -10 135 -6 70 -18 292 -18 320 1 14 4 57 7 95 17 191 20 271 20 525
1 257 -8 543 -19 635 -11 92 -117 115 -144 32 -6 -19 -14 -98 -16 -176 -3 -79
-8 -148 -12 -154 -4 -6 -1 -7 7 -2 9 6 11 4 5 -5 -5 -8 -9 -228 -10 -489 -2
-424 -7 -560 -21 -582 -2 -4 -6 -24 -9 -45 -3 -22 -23 -120 -45 -219 -23 -99
-42 -189 -44 -200 -2 -11 -4 -20 -5 -20 -2 0 -4 -7 -6 -16 -4 -25 -12 -51 -63
-209 -25 -80 -47 -147 -47 -150 -1 -3 -5 -14 -10 -25 -4 -11 -30 -76 -57 -145
-40 -103 -192 -423 -227 -480 -6 -8 -40 -67 -77 -130 -38 -63 -74 -121 -81
-128 -7 -7 -13 -17 -13 -21 0 -10 -35 -51 -43 -51 -3 0 -19 11 -34 25 -38 33
-42 36 -99 80 -27 20 -51 41 -54 44 -7 10 -256 173 -300 197 -19 10 -37 21
-40 24 -10 11 -315 158 -405 196 -49 20 -94 41 -99 46 -6 4 -16 8 -23 8 -7 0
-36 11 -65 24 -29 13 -71 29 -93 36 -22 7 -50 19 -62 26 -13 8 -23 12 -23 9 0
-3 -13 1 -30 10 -16 8 -31 15 -32 14 -5 -1 -63 21 -80 31 -10 6 -22 10 -27 10
-5 0 -22 5 -38 12 -15 6 -30 12 -33 13 -3 1 -14 5 -25 10 -27 11 -336 131
-405 157 -30 12 -68 27 -85 34 -16 7 -59 25 -95 39 -67 28 -273 129 -327 162
-17 10 -54 32 -82 48 -28 17 -51 33 -51 38 0 4 -6 7 -12 7 -7 0 -43 24 -80 54
-59 47 -96 83 -171 170 -30 34 -95 177 -103 226 -18 111 -5 235 35 325 11 25
17 45 13 45 -4 0 -2 4 3 8 6 4 20 27 33 52 87 173 286 353 518 469 88 44 295
115 362 125 24 3 46 7 50 10 4 2 30 7 57 11 28 4 66 9 85 12 55 9 429 8 490
-1 30 -5 66 -10 80 -11 45 -6 131 -28 215 -56 33 -10 64 -19 69 -18 5 0 12 -3
15 -8 3 -4 41 -26 84 -47 88 -45 171 -120 207 -185 29 -56 30 -127 0 -193 -38
-86 -145 -206 -260 -292 -30 -22 -57 -44 -60 -47 -11 -14 -234 -149 -246 -149
-7 0 -14 -4 -16 -8 -1 -5 -41 -27 -88 -49 -151 -73 -207 -97 -457 -193 -59
-22 -84 -37 -89 -52 -7 -22 16 -48 42 -48 11 0 81 22 114 37 8 3 19 5 24 4 4
-1 14 3 20 9 7 5 30 16 52 24 21 8 53 20 69 27 17 6 36 13 42 15 25 5 73 29
73 36 0 5 3 7 8 6 42 -12 527 249 637 343 11 10 31 28 45 39 14 12 36 32 50
44 14 11 41 41 60 66 19 25 40 51 47 57 16 18 64 120 70 152 17 90 3 174 -39
249 -26 44 -128 152 -144 152 -7 0 -14 7 -18 15 -3 8 -10 15 -15 15 -6 0 -35
16 -66 35 -30 20 -57 35 -60 35 -3 0 -20 6 -38 13 -95 40 -232 81 -312 92 -22
3 -45 8 -52 10 -29 10 -199 20 -333 20 -186 -1 -306 -13 -467 -50 -13 -3 -33
-7 -45 -10 -39 -8 -182 -57 -210 -71 -16 -8 -28 -12 -28 -9 0 2 -20 -7 -45
-21 -25 -13 -45 -22 -45 -19 0 2 -29 -13 -65 -35 -36 -22 -68 -40 -71 -40 -2
0 -10 -5 -17 -10 -7 -6 -43 -34 -82 -62 -145 -108 -289 -275 -354 -412 -34
-71 -60 -137 -67 -171 -2 -11 -7 -31 -10 -45 -10 -40 -13 -250 -3 -250 4 0 6
-6 3 -13 -3 -8 2 -36 11 -63 62 -189 194 -347 415 -492 69 -45 131 -87 138
-93 6 -5 12 -7 12 -4 0 3 17 -5 38 -18 79 -50 261 -132 502 -226 102 -40 194
-77 205 -81 11 -5 49 -20 85 -33 36 -14 106 -41 155 -60 50 -19 128 -49 175
-67 92 -34 106 -40 162 -64 20 -9 39 -16 43 -16 3 0 25 -8 48 -19 23 -10 85
-37 137 -59 173 -74 482 -234 518 -269 7 -7 17 -13 22 -13 5 0 15 -6 22 -13 7
-6 40 -30 72 -52 33 -22 64 -44 70 -50 6 -6 25 -21 41 -34 54 -41 145 -124
145 -131 0 -6 -29 -47 -68 -95 -4 -5 -28 -37 -52 -70 -25 -33 -47 -62 -50 -65
-3 -3 -24 -30 -48 -60 -23 -30 -51 -66 -62 -80 -88 -110 -123 -156 -408 -525
-107 -138 -340 -484 -333 -494 2 -2 -1 -7 -6 -10 -12 -8 -103 -159 -103 -171
0 -4 -3 -10 -7 -12 -9 -3 -23 -29 -127 -233 -72 -141 -150 -306 -149 -315 1
-3 -7 -21 -18 -41 -61 -120 -221 -566 -263 -734 -10 -38 -20 -77 -23 -85 -3
-8 -7 -24 -9 -35 -1 -11 -9 -51 -18 -90 -28 -134 -38 -340 -22 -460 15 -118
80 -252 163 -336 40 -41 155 -119 176 -119 4 0 20 -6 35 -14 31 -16 124 -42
187 -52 50 -7 357 -13 369 -6 4 2 27 6 50 8 22 2 52 6 66 9 14 3 41 8 60 11
19 3 69 15 110 26 41 11 80 21 85 22 11 2 112 35 135 43 8 4 17 7 20 8 3 1 18
7 33 13 16 7 30 12 32 12 8 0 140 61 210 98 39 19 80 40 92 46 13 6 23 14 23
19 0 4 5 7 10 7 10 0 142 83 166 105 7 6 24 19 40 30 100 72 239 206 324 312
49 60 100 133 100 142 0 5 4 11 8 13 23 9 164 283 192 373 7 22 16 45 20 50 6
9 20 55 21 70 0 3 6 23 14 46 9 23 17 51 19 63 2 12 9 42 15 69 6 26 14 64 17
85 3 20 7 44 9 52 4 14 7 37 21 170 12 114 6 388 -11 505 -17 117 -37 224 -46
253 -6 18 -12 43 -14 55 -8 52 -56 202 -113 347 -5 14 -10 28 -10 33 -1 4 -8
20 -16 35 -8 15 -45 87 -80 160 -139 283 -320 556 -506 762 -52 58 -53 62 -16
116 57 84 122 187 150 239 15 28 37 66 48 85 27 46 140 271 171 340 13 30 34
76 46 102 11 26 21 51 21 54 0 3 7 20 15 37 25 55 118 333 156 465 11 41 22
72 24 70 4 -3 7 -29 20 -175 3 -29 7 -77 10 -105 7 -69 13 -152 29 -363 3 -33
5 -60 6 -60 1 0 3 -25 5 -55 2 -30 6 -82 10 -115 4 -33 9 -82 11 -110 2 -27 6
-70 9 -95 7 -55 12 -96 20 -180 3 -36 8 -78 10 -95 2 -16 7 -57 10 -90 4 -33
9 -78 12 -100 2 -22 6 -60 8 -85 4 -45 10 -107 20 -187 7 -63 14 -122 19 -173
8 -72 16 -139 26 -220 5 -41 12 -102 16 -135 3 -33 8 -68 10 -78 2 -10 6 -46
10 -80 4 -34 8 -73 9 -87 2 -14 4 -25 5 -25 1 0 3 -20 5 -45 2 -25 6 -65 10
-90 3 -25 8 -63 10 -84 2 -22 7 -58 10 -80 3 -23 7 -54 10 -71 2 -16 6 -41 8
-55 3 -14 8 -47 11 -75 3 -27 8 -61 10 -75 3 -14 7 -45 11 -70 11 -78 14 -94
23 -125 9 -32 42 -55 80 -55 26 0 68 40 71 67 2 18 1 280 -2 690 -1 117 -4
213 -7 213 -3 0 -5 14 -5 30 0 17 4 30 8 30 5 0 5 5 1 11 -10 16 -11 99 -1 99
4 0 5 5 1 11 -11 18 -10 159 1 159 7 0 7 3 0 8 -6 4 -9 25 -8 47 4 48 4 37 0
158 -1 53 1 97 5 97 4 0 3 11 -2 24 -5 13 -6 26 -3 29 2 3 6 70 8 149 4 161
12 330 20 398 2 25 7 74 11 110 14 139 23 218 29 250 2 14 7 48 11 75 3 28 7
57 8 65 26 189 86 411 142 522 38 76 70 104 110 94 30 -8 134 -102 134 -122 0
-8 4 -14 9 -14 5 0 11 -8 14 -17 3 -10 13 -29 21 -43 38 -61 104 -242 121
-330 3 -19 8 -46 11 -60 8 -39 11 -204 5 -215 -6 -11 -8 -18 -10 -39 -2 -24
-52 -76 -72 -76 -11 0 -54 33 -96 75 -74 73 -85 79 -128 76 -21 -2 -81 -62
-83 -83 -10 -140 2 -239 46 -383 46 -150 187 -332 317 -411 81 -49 138 -63
240 -60 88 3 232 28 267 47 10 5 18 7 18 4 0 -3 13 1 29 9 16 9 31 12 35 9 3
-4 6 0 6 7 0 7 2 11 6 8 9 -9 235 108 279 144 5 5 51 37 100 72 50 35 99 72
110 83 11 10 40 34 65 54 91 74 248 219 329 303 136 141 174 184 286 321 49
61 93 112 97 113 5 2 8 8 8 13 0 5 20 36 45 68 61 80 115 161 115 172 0 5 3 9
8 9 4 0 18 20 31 45 13 25 28 45 33 45 5 0 7 4 3 9 -3 5 0 15 7 23 7 7 25 36
40 63 14 28 38 73 53 100 31 58 135 292 140 315 2 8 13 40 24 70 27 72 78 256
85 301 3 20 8 42 11 50 7 19 25 139 33 224 14 138 7 458 -12 555 -3 14 -7 43
-11 64 -9 63 -13 80 -47 211 -18 70 -70 220 -81 233 -5 6 -7 12 -4 12 10 0
-101 239 -151 325 -60 104 -77 131 -87 137 -5 4 -6 8 -2 8 5 0 2 7 -5 15 -23
26 -33 39 -58 80 -24 38 -42 64 -66 89 -6 6 -15 18 -20 27 -25 44 -173 201
-287 305 -103 93 -351 274 -377 274 -5 0 -10 5 -10 10 0 6 -5 10 -10 10 -6 0
-28 11 -51 25 -100 64 -332 173 -489 229 -41 15 -82 30 -90 33 -8 4 -17 7 -20
8 -3 1 -38 11 -79 24 -123 38 -334 90 -342 85 -4 -2 -10 0 -14 5 -3 5 -13 9
-23 9 -16 -1 -31 2 -102 17 -14 3 -43 7 -65 10 -22 4 -51 8 -65 10 -14 2 -54
7 -90 10 -36 4 -78 9 -95 12 -35 6 -561 14 -566 9z m-1063 -5319 c118 -140
204 -252 204 -267 0 -6 4 -10 8 -10 4 0 16 -15 27 -32 10 -18 21 -35 24 -38 3
-3 11 -14 18 -25 7 -11 31 -51 55 -90 122 -202 229 -425 292 -610 15 -44 30
-87 33 -95 4 -8 5 -19 4 -24 -1 -4 3 -13 8 -20 5 -6 12 -24 14 -41 3 -16 8
-41 11 -55 7 -27 12 -53 19 -85 3 -11 8 -40 12 -65 4 -25 9 -52 10 -60 33
-185 35 -497 5 -645 -4 -22 -8 -47 -8 -55 -1 -8 -6 -37 -12 -65 -6 -27 -14
-61 -17 -75 -7 -34 -11 -55 -12 -57 -1 -2 -1 -5 -1 -8 -1 -3 -8 -24 -16 -47
-9 -24 -17 -51 -19 -61 -6 -26 -52 -140 -88 -217 -97 -205 -255 -414 -421
-555 -26 -22 -53 -45 -59 -50 -75 -65 -258 -180 -382 -240 -44 -22 -82 -40
-85 -41 -3 0 -18 -6 -35 -13 -113 -47 -201 -78 -249 -87 -16 -2 -34 -8 -40
-12 -6 -3 -15 -7 -21 -8 -5 -1 -46 -9 -90 -17 -44 -9 -96 -19 -115 -23 -58
-10 -342 -14 -385 -4 -22 5 -54 11 -70 13 -32 5 -137 39 -145 47 -3 3 -18 12
-33 19 -71 37 -152 140 -177 226 -31 109 -33 287 -5 450 6 33 27 134 31 150 2
6 6 24 9 40 3 17 14 57 25 90 11 33 31 98 46 145 34 109 110 315 145 396 10
22 27 63 37 90 23 56 78 177 128 278 19 37 34 74 34 81 0 7 4 15 8 17 4 2 23
32 41 68 18 36 48 92 67 125 19 33 37 68 40 78 4 9 10 17 15 17 5 0 9 5 9 11
0 10 136 236 150 249 3 3 36 52 75 110 38 58 75 112 82 120 8 8 44 58 82 110
38 52 75 102 83 111 9 9 24 30 34 48 10 17 21 31 24 31 3 0 24 24 45 53 22 28
74 95 115 147 41 52 80 101 87 110 15 19 131 169 181 233 20 27 44 57 53 68 9
11 27 35 40 54 13 19 27 35 30 35 3 0 14 -10 25 -23z"/>
</g>
</svg>
