<svg xmlns="http://www.w3.org/2000/svg" viewBox="0 0 938.01 999.66"><defs><style>.cls-1{fill:#9f3f83;}</style></defs><g id="Layer_2" data-name="Layer 2"><g id="Layer_1-2" data-name="Layer 1"><path class="cls-1" d="M626.89,981.73c-79.31,19.48-161.62,23.55-242.27,9.93-10.46-1.5-27.44-4.75-37.75-7.11-12.68-2.91-25.37-5.93-37.85-9.61-22.69-6.67-45.1-14.25-66.62-24.14C228.78,944.54,215.2,938.09,202,931A387.72,387.72,0,0,1,149.3,896.7C136.8,887,124.56,877,113.4,865.77c-8.62-8.64-16.68-17.85-24.82-26.95-11.28-12.59-20.79-26.53-29.95-40.67A291.31,291.31,0,0,1,40.53,766c-7.22-15-14.06-30.21-19.09-46.06-3.92-12.38-7.31-24.94-10.61-37.51-3.23-12.32-5.06-24.92-6.91-37.52A403.13,403.13,0,0,1,0,581.16a407.38,407.38,0,0,1,3.28-46.69c2-15.71,4.33-31.36,7.81-46.81,5-22.18,11.07-44.06,19.39-65.24,5.38-13.71,10.81-27.43,17-40.77a496,496,0,0,1,31.77-57.5,652.65,652.65,0,0,1,41.19-57.25C132.78,251.52,146,237,159.58,222.75a708.37,708.37,0,0,1,52-48.82,791,791,0,0,1,79.69-59.73c18.66-12.28,37.76-23.84,57.39-34.49a754.07,754.07,0,0,1,99.71-45.24,610.91,610.91,0,0,1,78.23-23.16A403.59,403.59,0,0,1,576.55,3C591.1,1.63,605.7.37,620.3.08a377.61,377.61,0,0,1,67.16,4.54,386.11,386.11,0,0,1,63.78,15.66,314.2,314.2,0,0,1,74.62,36.49,252.1,252.1,0,0,1,56.57,51.78c89.5,117.11,62.51,241-21.32,340.9a444,444,0,0,1-50.44,52.08c-15.81,13.87-32.38,26.77-50.9,36.93A119.78,119.78,0,0,1,712,552.7c-12,1.06-22.27-3-31.25-10.45-16.87-14-26.47-32.32-29.72-53.86a64.22,64.22,0,0,1-.3-20.25,11.28,11.28,0,0,1,6.61-9,7.77,7.77,0,0,1,8.84,1.57c2.16,2.15,4.07,4.56,6.19,6.75a39.19,39.19,0,0,0,5,4.59c3.78,2.78,6.48,2.19,9-1.74,2.67-4.19,3.36-8.93,3.6-13.73a81.94,81.94,0,0,0-2.56-22.92c-3.06-13-7.19-25.62-14.47-36.94a50.18,50.18,0,0,0-8.53-10.46c-7.4-6.55-11.48-5.63-16.18,2.41-4.33,7.39-6.78,15.52-9,23.7a284.22,284.22,0,0,0-7.92,40.69c-1.61,13.19-3.28,26.38-4.4,39.61-1.06,12.45-1.62,24.94-2.08,37.43-.48,13-.78,26-.8,39q0,30.06.42,60.11c.36,22.07,1.09,44.13,1.48,66.19a82.52,82.52,0,0,1-1,13.86,7.27,7.27,0,0,1-7.4,6.49c-3.91,0-6.76-2-7.66-6.2-1.19-5.58-2-11.23-2.84-16.88q-2.41-16.77-4.61-33.56c-1.24-9.49-2.37-19-3.51-28.49-2.46-20.71-5-41.42-7.32-62.14q-3.22-28.31-6.19-56.65c-1.88-17.7-3.76-35.4-5.45-53.13-1.57-16.53-2.9-33.08-4.33-49.63q-1.6-18.63-3.2-37.26l-.69-.23a22,22,0,0,0-.95,2.44A451.84,451.84,0,0,1,556,420a438.27,438.27,0,0,1-20.17,45.5,472.44,472.44,0,0,1-29.06,49c-1.6,2.36-1.59,2.57.43,4.75,25.9,28,45.55,60.08,61.05,94.78A261.57,261.57,0,0,1,587,675.14a245.82,245.82,0,0,1,3.62,51.2,234.09,234.09,0,0,1-4.92,40.29,200.79,200.79,0,0,1-29.44,71,181.49,181.49,0,0,1-42,44.45,237.08,237.08,0,0,1-94.07,42.6,163.41,163.41,0,0,1-46.56,3.49c-12.57-.94-24.9-3.42-36.34-9.67a54.34,54.34,0,0,1-25.86-30.1c-4-11.07-4.74-22.57-4.21-34.17.71-15.44,3.78-30.48,7.78-45.4a495.65,495.65,0,0,1,17.3-51.72,642.85,642.85,0,0,1,28.71-63.5,590.71,590.71,0,0,1,35.14-58.82c12.52-18.5,26-36.27,39.88-53.78,15.25-19.28,30.26-38.76,45.35-58.16,1.21-1.56,2.29-3.21,3.7-5.2h0c-3.61-3.24-6.95-6.42-10.47-9.39-19.42-16.43-41.19-29.15-64.08-40-23.07-10.95-47-19.8-70.8-28.95-20.58-7.91-41.19-15.74-61.57-24.14-18.06-7.44-35.6-16.05-51.94-26.89-9.9-6.56-19.2-13.84-26.91-23-18.43-21.83-22.05-46.18-12.08-72.71,5.67-15.09,15-27.74,26.54-38.88,14.55-14.08,31.58-24.25,50.44-31.38A187.57,187.57,0,0,1,306,212a212.25,212.25,0,0,1,43.77-1.37c21.47,1.58,42.38,5.75,61.7,15.88a71.7,71.7,0,0,1,21.85,17.08c10.94,12.91,11.73,29.19,2,43.87-6.35,9.53-14.63,17.16-23.7,24-13.74,10.41-28.8,18.57-44.4,25.79-14.85,6.86-29.83,13.37-45.23,18.88-3.25,1.16-6.54,2.23-9.82,3.3-2.91.95-5.14.14-6-2.08-.88-2.37.52-4.37,3.67-5.57,9.56-3.64,19.17-7.16,28.62-11.07,16.36-6.77,32.27-14.47,47.19-24.06,12.92-8.3,25.26-17.33,35-29.39a54,54,0,0,0,7.24-11.4c4.55-10.08,1.69-18.9-5.67-26.59-5.89-6.15-13.07-10.46-20.74-13.93-14.93-6.76-30.7-10.2-47-11.72a197.11,197.11,0,0,0-38.25.11c-25.68,2.6-50.17,9.18-72.28,23-16.5,10.3-30.34,23.33-39.8,40.55-5.57,10.16-9,20.91-8.95,32.69.1,13.54,5,25.15,13.57,35.37,8.87,10.67,20,18.65,31.76,25.73a320.81,320.81,0,0,0,47.21,23.12c29,11.48,58.23,22.51,87.32,33.84,26.15,10.18,51.85,21.32,75.89,36A288.47,288.47,0,0,1,491,503.45c.68.59,1.42,1.11,2.46,1.92h0c.92-1.14,1.81-2.07,2.52-3.13a425,425,0,0,0,40.72-76.57,438.54,438.54,0,0,0,21.15-65.93c3.28-14.11,6-28.37,8.72-42.59a97.14,97.14,0,0,0,1.73-20.7c-.54-25.66-.23-51.34,0-77,.12-11.72.39-23.44,1.27-35.12.06-.71.12-1.42.2-2.13.5-4.54,3.37-7.08,7.63-7,4.11.12,7.06,3,7.41,7.39.32,3.84.62,7.69.77,11.53.61,15.94,1.44,31.87,1.66,47.82a490.9,490.9,0,0,1-2.79,60.11c-.61,5.64-.18,11.42,0,17.13.23,6.24.73,12.47,1.17,18.7,1,14,2,28.1,3,42.14,1.1,14.71,2.19,29.42,3.46,44.12.82,9.53,2,19,2.94,28.55.9,9.12,1.64,18.26,2.53,27.39q1.71,17.65,3.56,35.3,2.58,24.17,5.29,48.33a10.35,10.35,0,0,0,1.72,4.84c.09-3.75.13-7.51.28-11.26.76-19.41,1.34-38.82,2.35-58.22.63-12.29,1.81-24.55,3.4-36.75,2.6-19.93,5.58-39.81,11.56-59.08,2.8-9,6-17.89,11.61-25.68,3.41-4.78,7.74-8.5,13.42-10.1a20.5,20.5,0,0,1,14,1.28c7,3.1,12.29,8.27,16.82,14.29,8.76,11.64,14.23,24.85,18.18,38.75,3.32,11.69,5.3,23.58,4.88,35.79a39.36,39.36,0,0,1-6.4,21c-6.16,9.21-17.54,12-27.19,5.89-1-.64-2-1.27-3-1.94s-1.83-1.31-3.31-2.38h0a37.7,37.7,0,0,0,0,4.21c2.39,18.4,10.26,34,24.27,46.22a38.32,38.32,0,0,0,8.67,5.58c4.76,2.27,9.8,3.19,15.11,1.72,17.23-4.77,33.91-10.84,49.09-20.52a317.23,317.23,0,0,0,36.41-27.18,430.66,430.66,0,0,0,66.28-71C943,315,945,209.36,872.43,114.59,848,84.76,817.66,62.88,782.92,46.74,757.74,35,731.39,27,704.17,21.59a364.07,364.07,0,0,0-43.81-6c-16.72-1.23-33.48-1.76-50.23-.4-12,1-24.16,1.65-36.12,3.32-13.79,1.92-27.55,4.35-41.15,7.34a572.19,572.19,0,0,0-81.15,24.62,738.23,738.23,0,0,0-88.93,41A791.3,791.3,0,0,0,207.31,202.3c-16.35,15-32.05,30.71-46.94,47.21-12.29,13.62-23.86,27.82-35,42.38a554.21,554.21,0,0,0-31.51,46A526,526,0,0,0,62.6,397a470.86,470.86,0,0,0-21.93,58.48A445.72,445.72,0,0,0,26,522c-2.65,18.84-4.65,37.73-4.78,56.78a431.15,431.15,0,0,0,1.62,45,347.57,347.57,0,0,0,6.81,44.49c2.74,11.9,5.71,23.75,9.16,35.46a295.66,295.66,0,0,0,15.6,40.83,330.22,330.22,0,0,0,45.25,73.84,357.78,357.78,0,0,0,40,42.15c8,7.16,16.46,13.85,25,20.41a384.66,384.66,0,0,0,60.79,37.86c12.17,6.19,24.62,12,37.28,17.06,14.13,5.71,28.56,10.77,43,15.57a475.13,475.13,0,0,0,56.91,15.15c14.72,2.93,29.42,6,44.21,8.53,61.41,9,125.65,14.61,188.72,9.58M496.5,529.4h0c-2.49,3.33-4.5,6.12-6.6,8.82-13.3,17.09-26.51,34.25-40,51.21-14.95,18.84-29.47,38-42.84,58a555.2,555.2,0,0,0-40.48,70.86c-8,16.8-15.49,33.79-21.95,51.25C336,792.85,328,816.28,324.35,841c-1.6,11-2.08,22-.45,32.94,1.61,10.77,6.29,20,14.94,26.88,5.82,4.63,12.61,7.37,19.76,9.11,15.31,3.71,30.92,3.44,46.5,1.4a200.28,200.28,0,0,0,44.69-11.3,224.63,224.63,0,0,0,47.27-24.46,174,174,0,0,0,59.37-69.22c11.91-25.29,17.83-52.12,19.13-80.08A221.54,221.54,0,0,0,573.48,687a237.75,237.75,0,0,0-8.41-38.47,290.19,290.19,0,0,0-22.76-53.41,352.83,352.83,0,0,0-38.24-57.24C501.8,535.09,499.32,532.53,496.5,529.4Z"/></g></g></svg>